<?xml version="1.0" encoding="UTF-8"?>
<!DOCTYPE svg PUBLIC "-//W3C//DTD SVG 1.1//EN" "http://www.w3.org/Graphics/SVG/1.1/DTD/svg11.dtd">
<!-- Creator: CorelDRAW -->
<svg xmlns="http://www.w3.org/2000/svg" xml:space="preserve" width="8in" height="3.41826in" version="1.1" style="shape-rendering:geometricPrecision; text-rendering:geometricPrecision; image-rendering:optimizeQuality; fill-rule:evenodd; clip-rule:evenodd"
viewBox="0 0 8000 3418.26"
 xmlns:xlink="http://www.w3.org/1999/xlink"
 xmlns:xodm="http://www.corel.com/coreldraw/odm/2003">
 <defs>
  <style type="text/css">
   <![CDATA[
    .fil1 {fill:#292F47}
    .fil2 {fill:#5CA47A}
    .fil3 {fill:white}
    .fil0 {fill:white}
   ]]>
  </style>
 </defs>
 <g id="Layer_x0020_1">
  <metadata id="CorelCorpID_0Corel-Layer"/>
  <rect class="fil0" width="8000" height="3418.26"/>
  <g id="_2381908775904">
   <path class="fil1" d="M3000.27 1945.2c25.55,-71.76 282.87,-771.17 283.2,-785.84 -49.79,-6.15 -77.85,14.97 -101.94,39.43 -62.75,63.72 -111.26,193.4 -141.63,277.44 -47.07,130.27 -83.96,260.26 -134.77,392.33 -1.7,4.4 -2.73,6.74 -4.74,11.84 -0.95,2.41 -1.57,4.32 -2.78,6.56l-3.41 5c-12.19,-11.46 -61.6,-136.31 -65.9,-147.35 -19.14,-49.06 -38.59,-101.93 -57.6,-152.95 -68.32,-183.32 -181.66,-415.37 -396.22,-449.14 -146.26,-23.02 -244.1,-6.48 -320.11,83.76 -35.49,42.14 -56.54,91.59 -54.95,158.2 4.05,169.53 200.04,235.23 318.58,315.47 44.15,29.88 83.78,60.64 90.95,121.08 8.32,70.15 -24.24,114.94 -68.19,140.53 -49.2,28.65 -118.96,27.2 -179.15,12.05 -73.57,-18.51 -137.29,-52.7 -154.39,-57.1l-13.06 124.17c38.48,16.36 131.1,30.74 176.46,37.41 60.6,8.91 138.02,0.65 190.04,-16.5 102.05,-33.64 181.82,-112.78 181.07,-243.2 -1.04,-180.86 -184.32,-242.56 -312.54,-323.86 -43.44,-27.55 -88.9,-57.39 -103.49,-108.81 -27.46,-96.76 112.24,-240.88 316.52,-126.5 29.74,16.65 37.19,21.97 59.3,46.77 108.36,121.55 167.82,257.44 216.79,420.23 13.88,46.15 82.72,312.51 96.5,327.32l144.23 4.67 41.21 -113.01z"/>
   <path class="fil1" d="M3903.59 1280.79c7.38,-6.94 46.69,-96.36 48.17,-101.17 -11.72,-8.52 -105.39,-26 -128.62,-29.63 -56.87,-8.89 -100.6,-12.9 -159.79,-12.79 -285.69,1.11 -436.73,183.95 -437.45,470.75 -0.72,288.56 144.65,472.8 435.59,473.32 85.19,0.15 214.07,-20.13 292.12,-47.18l0.04 -362.49c-12.31,-0.66 -44.72,13.76 -55.07,18.89 -59.49,29.5 -75.59,73.02 -76.13,144.66l1.98 126.64c-15.14,8.08 -66.31,15.95 -87.8,19.32 -86.7,13.6 -187.74,-8.53 -254.02,-62.04 -80.68,-65.14 -119.76,-171.76 -119.81,-311.12 -0.09,-207.27 90.17,-373.87 302.42,-374.05 51.44,-0.04 84.52,5.02 131.35,15.29 17.78,3.9 37.34,9.61 54.19,15.16 13.01,4.29 39.54,14.47 52.83,16.43z"/>
   <path class="fil2" d="M5741.41 1760.67c-7.16,60.91 -16.93,103.31 -53.5,143.65 -50.67,55.89 -154.41,73.64 -227.59,40.7 -48.66,-21.9 -40.52,-30.87 -40.53,-57.7 0,-15.9 -2.24,-337.81 1.43,-344.86 2.3,-4.42 23.18,-19.25 27.86,-22.19 52.38,-32.81 92.25,-38.44 162.1,-21.84 53.87,12.81 87.81,45.03 108.16,88.95 20.13,43.46 28.42,119.33 22.07,173.3zm-321.47 253.57c5.51,1.63 9.93,6.86 15.11,10.24 5.15,3.35 10.91,6.28 17.13,9.02 89.31,39.46 213.95,29.06 289.04,-25.62 81.19,-59.11 123.22,-161.04 121.77,-291.91 -1.39,-125.56 -39.34,-227.49 -130.5,-283.18 -81.2,-49.61 -220.85,-59.6 -298.89,12.37 -2.8,2.58 -3.63,3.76 -6.78,6.3 -6.41,5.18 -0.79,2.51 -6.87,3.7 -0.68,-15.77 4.84,-45.92 -4.57,-48.13 -12.23,-2.87 9.83,1.08 -3.31,-0.68l-106.04 0.52c-3.23,37.39 -0.44,87.8 -0.44,126.6 0,249.19 -1.56,502.17 -0.19,750.73 0.09,15.85 4.4,11.61 20.99,11.44l93.37 -0.27 0.18 -281.13z"/>
   <path class="fil2" d="M4652.97 1303.38c5.84,-16.45 37.38,-88.67 36.9,-101.92 -8.46,-3.39 -14.9,-7.92 -24.78,-12.19 -65.66,-28.37 -142.88,-35.96 -215.84,-33.34 -156.86,5.63 -270.73,113.76 -322.71,250.57 -51.43,135.37 -49.16,346.43 26.76,475.08 52.7,89.31 121.63,149.76 222.61,170.24l28.52 5.71c86.72,4.32 163.87,2.24 241.83,-40.41 18.11,-9.91 75.69,-47.32 79.92,-60.91 -2.33,-6.07 -60.78,-85.84 -64.63,-88.96 -6.36,4.11 -19.57,20.83 -26.44,27.08 -29.19,26.56 -64.65,45.46 -105.82,52.48 -197.88,33.76 -305.35,-119.67 -311.77,-310.89 -4.29,-127.87 31.41,-245.75 106.97,-316.58 39.02,-36.58 87.6,-56.17 156.41,-55.66 44.89,0.33 95.31,5.8 135.65,22.53 9.93,4.12 27.92,15.98 36.41,17.17z"/>
   <path class="fil2" d="M6774.54 1730.87c4.76,24.34 1,100.59 1.03,130.36 0.04,31.87 -1.94,28.63 -19.08,46.37 -10.94,11.32 -21.96,20.41 -34.16,29 -56.87,40.02 -150.83,44.63 -192.06,0.13 -22.58,-24.37 -29.02,-69.23 -17.52,-105.52 19.18,-60.55 84.8,-101.22 147.11,-109.5 33.66,-4.47 84.3,-1.22 114.68,9.16zm164.72 270.04c-7.12,-8.02 -14.22,-10.74 -22.56,-20.35 -21.54,-24.85 -27.3,-60.69 -27.33,-95.11 -0.06,-55.25 0,-110.5 0,-165.75 0,-111.6 -0.31,-201.83 -65.04,-265.1 -81.58,-79.74 -269.57,-79.78 -382.29,-8.61 -12.21,7.71 -18.04,8.28 -9.57,24.48 6.4,12.24 34.33,74.01 42.98,80.31 25.09,-15.72 25.78,-29.14 83.88,-45.46 34.65,-9.73 77.18,-12.44 115.14,-6.67 72.67,11.04 100.05,74.67 101.07,150.61 -9.48,-1.23 -22.6,-6.22 -32.91,-8.86 -71.14,-18.21 -172.64,4.06 -231.06,38.74 -63.03,37.42 -128.86,106.81 -117.47,205.37 6.09,52.75 20.41,81.83 49.31,113.07 64.54,69.74 161.45,72.64 248.09,42.34 20.02,-7 35.46,-16.42 52.33,-27.44 22.08,-14.43 34.83,-33.69 43.19,-38.05 9.97,28.67 27.44,51.8 52.8,64.48 21.26,10.64 69.67,20.44 98.55,17.1 2.44,-9.42 1.78,-44.18 0.9,-55.09z"/>
   <path class="fil2" d="M5032.15 1719.3c29.57,0.04 50.52,8.57 76.1,11.6 2.05,44.48 0.83,96.22 0.81,141.51 0,19.06 -5.59,20.97 -16.62,32.35 -25.15,25.96 -54.67,48.13 -92.8,57.82 -58.92,14.98 -125.61,0.33 -147.65,-42.09 -45.18,-86.97 36.27,-201.36 180.17,-201.19zm-225.34 -168.71c6.12,-1.2 5.26,-1.63 10.59,-6.56 44.08,-40.81 131.13,-56.07 188.32,-45.58 71.75,13.16 103.72,67.37 103.2,151.05 -23.33,-4.47 -40.26,-13.29 -69.28,-14.4 -109.56,-4.19 -219.32,32.29 -281.48,123.51 -49.11,72.07 -40.96,175.69 19.35,239.93 23.7,25.25 59.22,49.42 103.75,56.32 62.89,9.74 145.11,-5.3 195.98,-42.3 15.65,-11.39 40.16,-36.67 42.43,-37.86 3.54,5.06 6.79,14.01 9.74,19.86 3.74,7.4 7.48,13.11 11.71,18.44 28.41,35.8 87.32,46.83 131.72,42.22l-0.32 -56.21c-31.21,-15.61 -47.26,-54.52 -49.63,-98.71 -6.83,-127.11 20.49,-314.1 -35.29,-406.75 -40.37,-67.06 -104.3,-92.29 -196.5,-99.15 -82.37,-6.13 -169.94,17.76 -231.73,62.79l47.42 93.4z"/>
   <path class="fil3" d="M5741.41 1760.67c6.34,-53.96 -1.94,-129.84 -22.07,-173.3 -20.35,-43.93 -54.28,-76.14 -108.16,-88.95 -69.85,-16.61 -109.72,-10.97 -162.1,21.84 -4.68,2.93 -25.57,17.77 -27.86,22.19 -3.67,7.05 -1.43,328.96 -1.43,344.86 0,26.83 -8.13,35.8 40.53,57.7 73.19,32.94 176.93,15.2 227.59,-40.7 36.57,-40.34 46.34,-82.74 53.5,-143.65z"/>
   <path class="fil1" d="M1747.02 2053.53c17.63,-18.81 40.82,-67.63 49.16,-96.67 34.76,-121 -61.98,-160.49 -54.43,-363.86 3.46,-93.15 32.02,-156.57 53.97,-234.35 11.02,-39.07 21.3,-82.14 6.15,-123.99 -9.76,-26.96 -43.53,-73.26 -62.3,-80.76 -14.2,11.94 -49.1,72.22 -60.18,92.18 -18.11,32.65 -33.9,68.99 -46.56,104.07 -86.38,239.29 -42.29,493.79 104.26,694.13 6.82,9.32 4.91,7.35 9.93,9.24z"/>
   <path class="fil1" d="M912.02 1643.34c3.28,13.65 20.56,40.03 28.4,52.39 32.98,52.02 75.42,84.35 141.47,93.2 321.56,43.08 366.88,250.2 484.67,301.27 37.73,16.36 91.3,12.45 129.13,-3.63 0,-14.53 -42.33,-87.8 -52,-103.35 -57.04,-91.78 -138.19,-174.91 -231.83,-233.72 -136.4,-85.67 -268.79,-118.33 -430.28,-114.28 -8.58,0.22 -61.13,2.38 -69.57,8.12z"/>
   <path class="fil1" d="M911.61 1582.81c110.47,6.85 184.93,4.79 284.11,-21.52 151.7,-40.24 280.31,-128.6 375.78,-242.5 30.64,-36.55 108.47,-152.42 114.7,-195.38 -48.31,-3.67 -98.17,-0.87 -138.16,15.67 -45.26,18.73 -55.89,37.88 -83.44,71.08 -48.34,58.28 -99.45,107.33 -165.28,143.83 -90.43,50.15 -142.8,51.27 -234.62,74.73 -41.12,10.51 -76.77,21.09 -106.04,48.23 -24.67,22.88 -52.93,83.49 -47.07,105.85z"/>
   <path class="fil2" d="M6401.18 1957.42c-14.4,3.13 -22.67,17.83 -63.54,17.78 -89.11,-0.12 -90.38,-62.8 -90.38,-143.76 0,-24.74 -1.41,-296.56 0.43,-313.68l153.61 -0.52 -0.07 -83.02 -153.95 -0.57 -0.06 -178.84c-9.09,0.63 -84.38,24.77 -97.04,29.53 -3.1,25.93 -0.64,481.52 -0.64,521.03 0,86.64 -6.69,164.65 46.2,214.5 59.28,55.87 180.58,41.34 205.54,18.29l-0.11 -80.74z"/>
   <polygon class="fil2" points="6990.92,2046.17 7089.17,2046.09 7088.63,1139.86 6990.34,1139.96 "/>
   <polygon class="fil2" points="5909.1,2044.72 6007.13,2044.59 6006.85,1434.15 5908.87,1434.8 "/>
   <path class="fil3" d="M5032.15 1719.3c-143.9,-0.17 -225.35,114.22 -180.17,201.19 22.04,42.43 88.73,57.08 147.65,42.09 38.14,-9.7 67.65,-31.86 92.8,-57.82 11.03,-11.38 16.62,-13.29 16.62,-32.35 0.03,-45.3 1.24,-97.03 -0.81,-141.51 -25.57,-3.03 -46.53,-11.56 -76.1,-11.6z"/>
   <path class="fil2" d="M6021.54 1231.77c10.52,-38.28 -14.62,-70.08 -45.65,-77.89 -37.3,-9.38 -70.32,13.8 -77.93,44.33 -21.33,85.59 101.67,113.24 123.58,33.56z"/>
  </g>
 </g>
</svg>
