<svg width="768" height="329" viewBox="0 0 768 329" fill="none" xmlns="http://www.w3.org/2000/svg">
<path fill-rule="evenodd" clip-rule="evenodd" d="M288.026 186.739C290.478 179.85 315.181 112.707 315.213 111.299C310.433 110.708 307.739 112.736 305.426 115.084C299.402 121.201 294.746 133.65 291.83 141.718C287.311 154.224 283.77 166.703 278.892 179.382C278.729 179.804 278.63 180.029 278.437 180.519C278.346 180.75 278.286 180.933 278.17 181.148L277.843 181.628C276.673 180.528 271.929 168.543 271.516 167.483C269.679 162.773 267.812 157.697 265.987 152.8C259.428 135.201 248.547 112.924 227.95 109.682C213.909 107.472 204.516 109.06 197.219 117.723C193.812 121.769 191.791 126.516 191.944 132.91C192.333 149.185 211.148 155.492 222.528 163.195C226.766 166.064 230.57 169.017 231.259 174.819C232.058 181.553 228.932 185.853 224.713 188.31C219.989 191.06 213.292 190.921 207.514 189.467C200.451 187.69 194.334 184.408 192.693 183.985L191.439 195.905C195.133 197.476 204.025 198.857 208.379 199.497C214.197 200.352 221.629 199.559 226.623 197.913C236.42 194.683 244.078 187.086 244.006 174.566C243.906 157.203 226.311 151.28 214.002 143.475C209.832 140.83 205.467 137.966 204.067 133.029C201.431 123.74 214.842 109.905 234.453 120.885C237.308 122.484 238.023 122.994 240.146 125.375C250.548 137.044 256.256 150.089 260.957 165.717C262.29 170.148 268.898 195.718 270.221 197.14L284.067 197.588L288.024 186.739H288.026Z" fill="white"/>
<path fill-rule="evenodd" clip-rule="evenodd" d="M374.745 122.956C375.453 122.29 379.227 113.705 379.369 113.243C378.244 112.426 369.251 110.747 367.021 110.399C361.562 109.546 357.364 109.161 351.682 109.171C324.255 109.278 309.755 126.83 309.686 154.363C309.617 182.065 323.573 199.752 351.503 199.802C359.681 199.816 372.054 197.869 379.546 195.273L379.55 160.474C378.369 160.41 375.257 161.794 374.264 162.287C368.553 165.119 367.007 169.297 366.955 176.174L367.145 188.332C365.692 189.107 360.779 189.863 358.716 190.186C350.393 191.492 340.693 189.368 334.33 184.231C326.585 177.977 322.834 167.742 322.829 154.363C322.82 134.465 331.485 118.472 351.861 118.454C356.799 118.45 359.975 118.936 364.471 119.922C366.178 120.297 368.055 120.845 369.673 121.378C370.922 121.789 373.469 122.768 374.745 122.956Z" fill="white"/>
<path fill-rule="evenodd" clip-rule="evenodd" d="M551.174 169.024C550.487 174.872 549.549 178.942 546.038 182.815C541.174 188.18 531.215 189.884 524.19 186.722C519.518 184.619 520.3 183.758 520.299 181.183C520.299 179.656 520.084 148.753 520.436 148.076C520.657 147.652 522.661 146.228 523.111 145.946C528.139 142.796 531.967 142.256 538.672 143.849C543.844 145.079 547.102 148.172 549.055 152.388C550.988 156.56 551.784 163.843 551.174 169.024ZM520.313 193.367C520.842 193.523 521.266 194.025 521.764 194.35C522.258 194.672 522.811 194.953 523.408 195.216C531.982 199.004 543.947 198.006 551.156 192.756C558.95 187.082 562.985 177.296 562.846 164.733C562.712 152.679 559.069 142.894 550.318 137.548C542.523 132.785 529.116 131.826 521.624 138.735C521.356 138.983 521.276 139.096 520.974 139.34C520.358 139.837 520.898 139.581 520.314 139.695C520.249 138.181 520.779 135.287 519.875 135.075C518.701 134.799 520.819 135.178 519.558 135.009L509.378 135.059C509.068 138.649 509.335 143.488 509.335 147.213C509.335 171.135 509.186 195.421 509.317 219.283C509.326 220.805 509.74 220.398 511.332 220.381L520.296 220.355L520.313 193.367Z" fill="white"/>
<path fill-rule="evenodd" clip-rule="evenodd" d="M446.685 125.125C447.246 123.545 450.273 116.612 450.227 115.34C449.415 115.015 448.797 114.58 447.848 114.17C441.545 111.446 434.132 110.718 427.128 110.969C412.069 111.51 401.138 121.89 396.148 135.024C391.21 148.02 391.428 168.281 398.717 180.632C403.776 189.205 410.393 195.009 420.087 196.975L422.825 197.523C431.15 197.938 438.557 197.738 446.041 193.644C447.779 192.692 453.307 189.101 453.713 187.796C453.489 187.213 447.878 179.556 447.509 179.256C446.898 179.651 445.63 181.256 444.97 181.856C442.168 184.405 438.764 186.22 434.812 186.894C415.815 190.135 405.498 175.405 404.882 157.048C404.47 144.773 407.897 133.456 415.151 126.657C418.897 123.145 423.56 121.264 430.166 121.313C434.476 121.345 439.316 121.87 443.189 123.476C444.142 123.872 445.869 125.01 446.684 125.125H446.685Z" fill="white"/>
<path fill-rule="evenodd" clip-rule="evenodd" d="M650.356 166.163C650.813 168.5 650.452 175.82 650.455 178.678C650.458 181.738 650.268 181.426 648.623 183.13C647.573 184.216 646.515 185.089 645.344 185.914C639.884 189.755 630.864 190.198 626.906 185.926C624.738 183.586 624.12 179.28 625.224 175.796C627.065 169.983 633.365 166.079 639.346 165.284C642.578 164.855 647.439 165.167 650.356 166.163ZM666.169 192.087C665.485 191.317 664.804 191.056 664.003 190.134C661.935 187.748 661.382 184.307 661.379 181.003C661.374 175.699 661.379 170.395 661.379 165.091C661.379 154.378 661.35 145.715 655.136 139.642C647.304 131.986 629.257 131.983 618.436 138.815C617.264 139.555 616.704 139.61 617.517 141.165C618.131 142.34 620.813 148.27 621.643 148.875C624.052 147.366 624.118 146.077 629.696 144.511C633.022 143.577 637.105 143.316 640.749 143.87C647.725 144.93 650.354 151.039 650.452 158.329C649.542 158.211 648.282 157.732 647.292 157.478C640.463 155.73 630.719 157.868 625.111 161.197C619.06 164.79 612.74 171.451 613.833 180.913C614.418 185.977 615.793 188.769 618.567 191.768C624.763 198.463 634.066 198.741 642.384 195.832C644.306 195.16 645.788 194.256 647.408 193.198C649.527 191.813 650.751 189.964 651.554 189.545C652.511 192.298 654.188 194.518 656.623 195.735C658.664 196.757 663.311 197.698 666.083 197.377C666.318 196.473 666.254 193.136 666.17 192.088L666.169 192.087Z" fill="white"/>
<path fill-rule="evenodd" clip-rule="evenodd" d="M483.086 165.053C485.925 165.057 487.936 165.876 490.392 166.167C490.589 170.437 490.472 175.404 490.47 179.751C490.47 181.581 489.933 181.765 488.874 182.857C486.46 185.349 483.626 187.478 479.965 188.408C474.309 189.846 467.907 188.439 465.791 184.367C461.454 176.018 469.273 165.037 483.087 165.053H483.086ZM461.454 148.857C462.041 148.742 461.959 148.7 462.47 148.227C466.702 144.309 475.059 142.844 480.549 143.851C487.437 145.115 490.506 150.319 490.456 158.352C488.217 157.923 486.591 157.076 483.805 156.97C473.288 156.567 462.751 160.07 456.783 168.827C452.069 175.745 452.851 185.693 458.641 191.86C460.916 194.284 464.326 196.604 468.601 197.267C474.638 198.202 482.532 196.758 487.415 193.206C488.917 192.112 491.27 189.686 491.488 189.571C491.828 190.057 492.14 190.916 492.423 191.478C492.782 192.188 493.141 192.736 493.548 193.248C496.275 196.685 501.93 197.744 506.193 197.301L506.162 191.905C503.166 190.407 501.625 186.671 501.397 182.429C500.742 170.226 503.364 152.275 498.01 143.381C494.134 136.943 487.997 134.521 479.146 133.863C471.238 133.274 462.831 135.567 456.9 139.89L461.452 148.857H461.454Z" fill="white"/>
<path fill-rule="evenodd" clip-rule="evenodd" d="M167.714 197.139C169.406 195.333 171.633 190.646 172.433 187.859C175.77 176.243 166.483 172.452 167.208 152.928C167.54 143.986 170.282 137.897 172.389 130.43C173.447 126.68 174.434 122.545 172.979 118.527C172.042 115.939 168.801 111.494 166.999 110.774C165.635 111.921 162.285 117.708 161.221 119.624C159.483 122.758 157.967 126.247 156.752 129.614C148.459 152.586 152.692 177.018 166.761 196.251C167.415 197.146 167.232 196.956 167.714 197.138V197.139Z" fill="white"/>
<path fill-rule="evenodd" clip-rule="evenodd" d="M87.5537 157.761C87.8686 159.071 89.5275 161.604 90.2801 162.79C93.4462 167.784 97.5204 170.888 103.861 171.737C134.731 175.873 139.082 195.756 150.39 200.659C154.012 202.23 159.154 201.854 162.786 200.311C162.786 198.916 158.722 191.882 157.794 190.389C152.318 181.578 144.528 173.598 135.538 167.952C122.444 159.728 109.734 156.592 94.2315 156.981C93.4078 157.002 88.363 157.21 87.5527 157.761H87.5537Z" fill="white"/>
<path fill-rule="evenodd" clip-rule="evenodd" d="M87.5144 151.95C98.1195 152.607 105.268 152.41 114.789 149.884C129.352 146.021 141.699 137.538 150.864 126.604C153.805 123.095 161.277 111.971 161.875 107.847C157.237 107.495 152.451 107.764 148.612 109.352C144.267 111.15 143.246 112.988 140.601 116.175C135.961 121.77 131.054 126.479 124.735 129.983C116.053 134.797 111.026 134.905 102.211 137.157C98.2635 138.166 94.8411 139.182 92.0312 141.787C89.6628 143.984 86.9499 149.802 87.5124 151.949L87.5144 151.95Z" fill="white"/>
<path fill-rule="evenodd" clip-rule="evenodd" d="M614.513 187.912C613.131 188.213 612.338 189.624 608.414 189.619C599.86 189.608 599.737 183.591 599.737 175.818C599.737 173.443 599.602 147.349 599.779 145.705L614.526 145.655L614.518 137.685L599.739 137.631L599.733 120.462C598.86 120.522 591.633 122.84 590.417 123.297C590.12 125.786 590.357 169.523 590.357 173.316C590.357 181.633 589.714 189.122 594.792 193.908C600.483 199.271 612.127 197.876 614.523 195.664L614.513 187.912Z" fill="white"/>
<path fill-rule="evenodd" clip-rule="evenodd" d="M671.127 196.433L680.559 196.425L680.507 109.427L671.072 109.436L671.127 196.433Z" fill="white"/>
<path fill-rule="evenodd" clip-rule="evenodd" d="M567.272 196.293L576.683 196.28L576.656 137.678L567.25 137.741L567.272 196.293Z" fill="white"/>
<path fill-rule="evenodd" clip-rule="evenodd" d="M578.067 118.25C579.077 114.575 576.664 111.522 573.685 110.772C570.104 109.872 566.934 112.097 566.204 115.028C564.156 123.245 575.964 125.899 578.067 118.25Z" fill="white"/>
</svg>
